HIERARCHY
ROOT RootJoint
{
    OFFSET   0.000000   0.000000   0.000000
    CHANNELS 6 Xposition Yposition Zposition Xrotation Yrotation Zrotation
    JOINT pelvis_lowerback
    {
        OFFSET   0.000000   0.093605   0.000000
        CHANNELS 3 Xrotation Yrotation Zrotation
        JOINT lowerback_torso
        {
            OFFSET   0.000000   0.100000   0.000000
            CHANNELS 3 Xrotation Yrotation Zrotation
            JOINT torso_head
            {
                OFFSET   0.000000   0.282350   0.000000
                CHANNELS 3 Xrotation Yrotation Zrotation
                End Site
                {
                    OFFSET   0.000000   0.192650   0.000000
                }
            }
            JOINT rTorso_Clavicle
            {
                OFFSET  -0.001000   0.157500   0.000000
                CHANNELS 3 Xrotation Yrotation Zrotation
                JOINT rShoulder
                {
                    OFFSET  -0.117647   0.000000   0.000000
                    CHANNELS 3 Xrotation Yrotation Zrotation
                    JOINT rElbow
                    {
                        OFFSET  -0.245000   0.000000   0.000000
                        CHANNELS 3 Xrotation Yrotation Zrotation
                        JOINT rWrist
                        {
                            OFFSET  -0.240000   0.000000   0.000000
                            CHANNELS 3 Xrotation Yrotation Zrotation
                            End Site
                            {
                                OFFSET  -0.116353  -0.002500   0.000000
                            }
                        }
                    }
                }
            }
            JOINT lTorso_Clavicle
            {
                OFFSET   0.001000   0.157500   0.000000
                CHANNELS 3 Xrotation Yrotation Zrotation
                JOINT lShoulder
                {
                    OFFSET   0.117647   0.000000   0.000000
                    CHANNELS 3 Xrotation Yrotation Zrotation
                    JOINT lElbow
                    {
                        OFFSET   0.245000   0.000000   0.000000
                        CHANNELS 3 Xrotation Yrotation Zrotation
                        JOINT lWrist
                        {
                            OFFSET   0.240000   0.000000   0.000000
                            CHANNELS 3 Xrotation Yrotation Zrotation
                            End Site
                            {
                                OFFSET   0.116353  -0.002500   0.000000
                            }
                        }
                    }
                }
            }
        }
    }
    JOINT rHip
    {
        OFFSET  -0.100000  -0.051395   0.000000
        CHANNELS 3 Xrotation Yrotation Zrotation
        JOINT rKnee
        {
            OFFSET   0.000000  -0.410000   0.000000
            CHANNELS 3 Xrotation Yrotation Zrotation
            JOINT rAnkle
            {
                OFFSET   0.000000  -0.390000   0.000000
                CHANNELS 3 Xrotation Yrotation Zrotation
                JOINT rToeJoint
                {
                    OFFSET   0.000000  -0.050000   0.130000
                    CHANNELS 3 Xrotation Yrotation Zrotation
                    End Site
                    {
                        OFFSET  -0.010000   0.002000   0.060000
                    }
                }
            }
        }
    }
    JOINT lHip
    {
        OFFSET   0.100000  -0.051395   0.000000
        CHANNELS 3 Xrotation Yrotation Zrotation
        JOINT lKnee
        {
            OFFSET   0.000000  -0.410000   0.000000
            CHANNELS 3 Xrotation Yrotation Zrotation
            JOINT lAnkle
            {
                OFFSET   0.000000  -0.390000   0.000000
                CHANNELS 3 Xrotation Yrotation Zrotation
                JOINT lToeJoint
                {
                    OFFSET   0.000000  -0.050000   0.130000
                    CHANNELS 3 Xrotation Yrotation Zrotation
                    End Site
                    {
                        OFFSET   0.010000   0.002000   0.060000
                    }
                }
            }
        }
    }
}
MOTION
Frames: 10
Frame Time:   0.008333
 -2.376719   0.925631   3.975860   0.000000   0.000000   0.000000   0.000000   0.000000   0.000000   0.000000   0.000000   0.000000   0.000000   0.000000   0.000000   0.000000   0.000000   0.000000   0.000000   0.000000   0.000000   0.000000   0.000000   0.000000   0.000000   0.000000   0.000000   0.000000   0.000000   0.000000   0.000000   0.000000   0.000000   0.000000   0.000000   0.000000   0.000000   0.000000   0.000000   0.000000   0.000000   0.000000   0.000000   0.000000   0.000000   0.000000   0.000000   0.000000   0.000000   0.000000   0.000000   0.000000   0.000000   0.000000   0.000000   0.000000   0.000000   0.000000   0.000000   0.000000   0.000000   0.000000   0.000000
 -2.376597   0.926128   3.974042  -0.021280  -0.197190   0.054824   0.435302   0.171375  -0.057380  -0.019322   0.014285  -0.015717  -0.045113   0.112585   0.237466   0.104263  -0.520407   0.098300   0.680533   0.077934   2.242627   0.032209   1.575425  -0.016528   0.284799  -0.415546  -2.727864   0.117753   0.136816  -0.300471   0.588686  -0.184964  -2.097046   0.025208  -1.189575   0.011695   0.267237   0.649994   2.851761  -1.674232  -0.310232  -0.002933   3.744093  -0.002294  -0.016538  -0.029807  -0.287340   0.528178  -0.716862   0.003576   0.005058  -0.513492   0.151104  -0.132055   1.997820   0.001359  -0.000842  -2.227135   0.129445   0.460259   0.457360  -0.001514   0.000354
 -2.376429   0.927418   3.971814  -0.221436  -0.338059   0.039182   1.026546   0.258028  -0.047392   0.146802  -0.043446  -0.023151  -0.040378   0.225780   0.486877   0.210429  -0.982536   0.887133   1.341276   0.231681   5.026472   0.074447   3.101316  -0.030947   0.614193  -0.375935  -4.795719   0.236954   0.149365  -1.386319   1.126423  -0.485338  -4.671692   0.058418  -2.363451   0.022339   0.557930   0.911671   4.929502  -3.573951  -0.591795   0.032738   7.454275  -0.005188  -0.026537  -0.513656  -0.533398   0.897060  -2.959797   0.010475   0.017713  -0.731824   0.288761  -0.249497   4.140350   0.003579  -0.000935  -4.307902   0.235438   0.894248   0.798700  -0.002092   0.000625
 -2.376304   0.928797   3.969687  -0.484491  -0.390308   0.041766   1.625882   0.253164  -0.077391   0.380580  -0.178767  -0.050975  -0.010959   0.331199   0.729941   0.314420  -1.385706   2.102819   1.980635   0.439163   8.168808   0.115502   4.537326  -0.040819   0.949744  -0.193502  -6.061022   0.347602   0.054440  -2.915762   1.606146  -0.870027  -7.461757   0.090794  -3.490363   0.030265   0.850087   0.943595   6.126333  -5.520828  -0.925717   0.068149  11.446961  -0.010335  -0.033689  -0.693029  -0.833556   1.308274  -5.547739   0.017861   0.031339  -0.712484   0.413932  -0.427608   6.226773   0.006139   0.000143  -6.248039   0.318657   1.300714   1.109233  -0.002291   0.000953
 -2.376218   0.929870   3.967748  -0.749453  -0.402501   0.049110   2.195825   0.186929  -0.126924   0.616212  -0.368409  -0.102812   0.022644   0.429422   0.957522   0.415565  -1.745349   3.557756   2.600237   0.689262  11.545941   0.150464   5.881983  -0.046425   1.279465   0.036820  -6.733483   0.444283  -0.113104  -4.693643   2.027970  -1.310266 -10.323453   0.118309  -4.563779   0.035670   1.141729   0.827671   6.683700  -7.492913  -1.262011   0.072627  15.447331  -0.015184  -0.037543  -0.770572  -1.152413   1.693437  -7.119797   0.018941   0.035735  -0.527131   0.531389  -0.641373   8.228397   0.008701   0.001282  -8.058691   0.383442   1.681881   1.387735  -0.002252   0.001191
 -2.376222   0.930343   3.966043  -0.998276  -0.360783   0.054785   2.724582   0.058177  -0.195897   0.833523  -0.610126  -0.172606   0.054801   0.520494   1.169344   0.515289  -2.083011   5.131604   3.201397   0.967315  15.075647   0.177387   7.135781  -0.048502   1.595766   0.268589  -7.004376   0.523598  -0.328546  -6.586487   2.394008  -1.784740 -13.163637   0.139382  -5.581199   0.039019   1.429808   0.615665   6.816877  -9.459075  -1.560198   0.071356  19.289287  -0.019229  -0.036516  -0.765699  -1.433924   2.072684  -7.797081   0.017052   0.032516  -0.217999   0.638000  -0.871361  10.142504   0.011050   0.002634  -9.748498   0.432247   2.038621   1.638279  -0.002089   0.001383
 -2.376310   0.930003   3.964580  -1.224155  -0.252057   0.058118   3.208086  -0.132390  -0.279482   1.027206  -0.903646  -0.240312   0.084086   0.604850   1.360155   0.621359  -2.418276   6.807639   3.751540   1.249653  18.523406   0.195018   8.300720  -0.047535   1.893522   0.476166  -6.916988   0.584304  -0.572417  -8.516079   2.707838  -2.276640 -15.930923   0.153792  -6.542028   0.040772   1.710722   0.342434   6.673330 -11.393292  -1.812023   0.103355  22.850859  -0.022610  -0.030823  -0.708522  -1.651403   2.452665  -7.860736   0.013779   0.026316   0.185012   0.733572  -1.110449  11.969035   0.013179   0.004329 -11.325396   0.467712   2.372091   1.864914  -0.001861   0.001565
 -2.376698   0.928191   3.962534  -1.500739  -0.347447  -0.093926   4.076262  -0.170848  -0.288777   0.978769  -1.122696  -0.236593  -0.078037   0.545633   1.494878   0.749818  -2.555199   8.005058   4.290535   1.575915  21.681704   0.199964   9.423944  -0.047722   2.012975   0.404143  -5.907790   0.534202  -0.819783  -9.682262   2.674437  -2.915522 -18.715907   0.164415  -7.648991   0.041154   1.826509   0.248966   5.721468 -13.513530  -2.265055   0.267650  26.718076  -0.029740  -0.037506  -0.968022  -1.927052   2.766441  -7.281323   0.008966   0.016751   1.002154   0.739969  -1.069402  12.551310   0.010995   0.002847 -12.340056   0.361778   2.545371   2.166628  -0.001688   0.000758
 -2.377192   0.925112   3.960194  -1.757387  -0.396508  -0.279392   4.972868  -0.239607  -0.293681   0.949033  -1.349865  -0.208754  -0.239376   0.484778   1.615601   0.840931  -2.595632   8.949460   4.753837   1.958130  24.508451   0.196372  10.492429  -0.047179   2.133440   0.370469  -4.994941   0.441479  -1.152964 -10.544794   2.589466  -3.585617 -21.165550   0.165941  -8.718116   0.041813   1.945301   0.007970   4.915729 -15.684752  -2.727723   0.407886  30.552331  -0.035041  -0.040386  -1.211565  -2.189410   3.057982  -6.761740   0.005396   0.009922   1.801017   0.722973  -0.911880  12.948441   0.008824   0.001996 -13.292136   0.256986   2.705065   2.453780  -0.001715   0.000207
 -2.377710   0.920912   3.957803  -2.005330  -0.389827  -0.470033   5.858380  -0.334621  -0.297272   0.943804  -1.590225  -0.172875  -0.382210   0.427280   1.725362   0.903871  -2.589702   9.709408   5.152413   2.361228  27.057039   0.187501  11.503589  -0.045725   2.259012   0.401322  -4.291976   0.317276  -1.531230 -11.200085   2.465660  -4.254817 -23.343021   0.161572  -9.737411   0.042057   2.075733  -0.335493   4.363795 -17.806927  -3.165460   0.493346  34.211646  -0.037405  -0.039341  -1.437945  -2.436054   3.328623  -6.286921   0.002853   0.005230   2.570828   0.705245  -0.687680  13.293477   0.006937   0.001548 -14.181970   0.157656   2.852760   2.716225  -0.001814  -0.000066
